<svg width="16" height="16" viewBox="0 0 16 16" fill="none" xmlns="http://www.w3.org/2000/svg">
<g id="linkedin-svgrepo-com 1" clip-path="url(#clip0_8_308)">
<g id="XMLID_801_">
<path id="XMLID_802_" d="M3.72439 5.14734H0.512367C0.369813 5.14734 0.254303 5.2629 0.254303 5.4054V15.7243C0.254303 15.8668 0.369813 15.9823 0.512367 15.9823H3.72439C3.86695 15.9823 3.98246 15.8668 3.98246 15.7243V5.4054C3.98246 5.2629 3.86695 5.14734 3.72439 5.14734Z" fill="white"/>
<path id="XMLID_803_" d="M2.11954 0.0175781C0.950813 0.0175781 0 0.967359 0 2.13479C0 3.30274 0.950813 4.25288 2.11954 4.25288C3.28733 4.25288 4.23737 3.30269 4.23737 2.13479C4.23742 0.967359 3.28733 0.0175781 2.11954 0.0175781Z" fill="white"/>
<path id="XMLID_804_" d="M11.8944 4.89087C10.6043 4.89087 9.65067 5.44545 9.07225 6.07559V5.4054C9.07225 5.2629 8.95674 5.14733 8.81418 5.14733H5.73811C5.59555 5.14733 5.48004 5.2629 5.48004 5.4054V15.7243C5.48004 15.8668 5.59555 15.9823 5.73811 15.9823H8.94311C9.08567 15.9823 9.20118 15.8668 9.20118 15.7243V10.6188C9.20118 8.8984 9.66848 8.22816 10.8678 8.22816C12.1739 8.22816 12.2777 9.30264 12.2777 10.7073V15.7243C12.2777 15.8669 12.3932 15.9824 12.5357 15.9824H15.7419C15.8845 15.9824 16 15.8669 16 15.7243V10.0642C16 7.50604 15.5122 4.89087 11.8944 4.89087Z" fill="white"/>
</g>
</g>
<defs>
<clipPath id="clip0_8_308">
<rect width="16" height="16" fill="white"/>
</clipPath>
</defs>
</svg>
