<svg width="24" height="23" viewBox="0 0 24 23" fill="none" xmlns="http://www.w3.org/2000/svg">
<path d="M23.576 0.995996L23.048 4.98C21.736 4.884 20.744 5.14 20.072 5.748C19.4 6.356 18.968 7.188 18.776 8.244C18.584 9.3 18.536 10.468 18.632 11.748H23.576V22.596H14.168V10.308C14.168 6.948 14.984 4.42 16.616 2.724C18.28 0.995996 20.6 0.419996 23.576 0.995996ZM10.088 0.995996L9.56 4.98C8.248 4.884 7.256 5.14 6.584 5.748C5.912 6.356 5.48 7.188 5.288 8.244C5.096 9.3 5.048 10.468 5.144 11.748H10.088V22.596H0.680001V10.308C0.680001 6.948 1.496 4.42 3.128 2.724C4.792 0.995996 7.112 0.419996 10.088 0.995996Z" fill="#191919"/>
</svg>
