<svg width="29" height="29" viewBox="0 0 29 29" fill="none" xmlns="http://www.w3.org/2000/svg">
<g id="Icon">
<g id="Vector">
<path d="M22.5909 22.5H5.40909C4.50527 22.4989 3.63877 22.1416 2.99967 21.5063C2.36057 20.871 2.00106 20.0096 2 19.1112V8.88884C2.00106 7.99039 2.36057 7.12903 2.99967 6.49373C3.63877 5.85843 4.50527 5.50106 5.40909 5.5H22.5909C23.4947 5.50106 24.3612 5.85843 25.0003 6.49373C25.6394 7.12903 25.9989 7.99039 26 8.88884V19.1112C25.9989 20.0096 25.6394 20.871 25.0003 21.5063C24.3612 22.1416 23.4947 22.4989 22.5909 22.5ZM5.40909 6.69606C4.82405 6.69606 4.26298 6.92708 3.8493 7.33831C3.43561 7.74953 3.20321 8.30728 3.20321 8.88884V19.1112C3.20321 19.6927 3.43561 20.2505 3.8493 20.6617C4.26298 21.0729 4.82405 21.3039 5.40909 21.3039H22.5909C23.1759 21.3039 23.737 21.0729 24.1507 20.6617C24.5644 20.2505 24.7968 19.6927 24.7968 19.1112V8.88884C24.7968 8.30728 24.5644 7.74953 24.1507 7.33831C23.737 6.92708 23.1759 6.69606 22.5909 6.69606H5.40909Z" fill="#222222"/>
<path d="M14 16.424C13.2578 16.4252 12.5355 16.1858 11.9425 15.7423L2.57754 8.70145C2.51137 8.65529 2.45524 8.59635 2.4125 8.52814C2.36976 8.45993 2.34129 8.38386 2.32878 8.30447C2.31628 8.22508 2.31999 8.144 2.33971 8.06607C2.35943 7.98814 2.39475 7.91496 2.44355 7.8509C2.49235 7.78684 2.55364 7.73322 2.62376 7.69323C2.69388 7.65324 2.77138 7.62771 2.85165 7.61816C2.93191 7.60861 3.01329 7.61524 3.09092 7.63765C3.16855 7.66006 3.24084 7.69779 3.30348 7.74859L12.6684 14.7974C13.053 15.0828 13.5201 15.2369 14 15.2369C14.4799 15.2369 14.947 15.0828 15.3316 14.7974L24.6965 7.74859C24.7592 7.69779 24.8314 7.66006 24.9091 7.63765C24.9867 7.61524 25.0681 7.60861 25.1484 7.61816C25.2286 7.62771 25.3061 7.65324 25.3762 7.69323C25.4464 7.73322 25.5076 7.78684 25.5565 7.8509C25.6053 7.91496 25.6406 7.98814 25.6603 8.06607C25.68 8.144 25.6837 8.22508 25.6712 8.30447C25.6587 8.38386 25.6302 8.45993 25.5875 8.52814C25.5448 8.59635 25.4886 8.65529 25.4225 8.70145L16.0575 15.7423C15.4645 16.1858 14.7422 16.4252 14 16.424Z" fill="#222222"/>
<path d="M2.83824 20.8335C2.71622 20.8337 2.59703 20.797 2.49649 20.7282C2.39595 20.6595 2.31881 20.562 2.2753 20.4487C2.23179 20.3354 2.22397 20.2116 2.25288 20.0938C2.28179 19.9759 2.34606 19.8696 2.43717 19.7889L9.81685 13.2465C9.93598 13.1407 10.0925 13.0864 10.2519 13.0954C10.4114 13.1043 10.5607 13.1759 10.6671 13.2943C10.7735 13.4128 10.8282 13.5683 10.8191 13.7268C10.8101 13.8853 10.7381 14.0338 10.619 14.1395L3.23931 20.682C3.12971 20.7811 2.98639 20.8352 2.83824 20.8335ZM25.1618 20.8335C25.0136 20.8352 24.8703 20.7811 24.7607 20.682L17.381 14.1395C17.2619 14.0338 17.1899 13.8853 17.1809 13.7268C17.1718 13.5683 17.2265 13.4128 17.3329 13.2943C17.4393 13.1759 17.5886 13.1043 17.7481 13.0954C17.9075 13.0864 18.064 13.1407 18.1832 13.2465L25.5588 19.7889C25.6499 19.8696 25.7142 19.9759 25.7431 20.0938C25.772 20.2116 25.7642 20.3354 25.7207 20.4487C25.6772 20.562 25.6 20.6595 25.4995 20.7282C25.399 20.797 25.2798 20.8337 25.1578 20.8335H25.1618Z" fill="#222222"/>
</g>
</g>
</svg>
